PathFileType	4	(X/Y/Z)	OpenSim_Sub10_EMGStiffKnee_Magnet.trc
DataRate	CameraRate	NumFrames	NumMarkers	Units	OrigDataRate	OrigDataStartFrame	OrigNumFrames
100	100	40	8	m	100	6279	8371
Frame#	Time	torso_imu_offset_imu	pelvis_imu_offset_imu	tibia_r_imu_offset_imu	femur_r_imu_offset_imu	tibia_l_imu_offset_imu	femur_l_imu_offset_imu	toes_r_imu_offset_imu	toes_l_imu_offset_imu
				X1	Y1	Z1	X2	Y2	Z2	X3	Y3	Z3	X4	Y4	Z4	X5	Y5	Z5	X6	Y6	Z6	X7	Y7	Z7	X8		Y8	Z8	

6279	62.78000000	-0.91308600	-0.15210000	0.10376000	-0.61035200	0.13964800	-0.69628900	-0.44824200	-0.71337900	-0.27710000	-0.84790000	-0.14257800	0.02758800	-0.64331100	0.42504900	0.26098600	-0.70263700	0.25732400	0.36254900	-0.69506800	-0.36572300	-0.10473600	-0.69262700	-0.18017600	-0.41284200
6280	62.79000000	-0.91748000	-0.14990200	0.11035200	-0.60815400	0.13964800	-0.70092800	-0.48242200	-0.69262700	-0.25561500	-0.84594700	-0.13427700	0.03418000	-0.63916000	0.43383800	0.25830100	-0.69628900	0.26171900	0.36254900	-0.69116200	-0.34912100	-0.15063500	-0.69482400	-0.18017600	-0.40820300
6281	62.80000000	-0.91308600	-0.15210000	0.10156200	-0.60815400	0.14379900	-0.69873000	-0.51001000	-0.67822300	-0.23828100	-0.84814500	-0.13427700	0.03173800	-0.64135700	0.43164100	0.26293900	-0.69628900	0.26611300	0.36914100	-0.68725600	-0.34277300	-0.18408200	-0.69262700	-0.18237300	-0.40161100
6282	62.81000000	-0.91503900	-0.15625000	0.10620100	-0.60839800	0.14599600	-0.69873000	-0.53979500	-0.66577100	-0.21630900	-0.85034200	-0.12793000	0.02685500	-0.63256800	0.43603500	0.26464800	-0.69238300	0.28125000	0.36914100	-0.67895500	-0.33642600	-0.21118200	-0.69921900	-0.18042000	-0.39941400
6283	62.82000000	-0.91284200	-0.15625000	0.11059600	-0.60815400	0.14379900	-0.69873000	-0.56982400	-0.64697300	-0.19458000	-0.85034200	-0.12793000	0.03613300	-0.63037100	0.43823200	0.26464800	-0.69043000	0.28784200	0.36669900	-0.67114300	-0.31787100	-0.24487300	-0.70166000	-0.18042000	-0.39477500
6284	62.83000000	-0.91503900	-0.15625000	0.11279300	-0.60620100	0.14379900	-0.69873000	-0.59765600	-0.62841800	-0.17309600	-0.85058600	-0.12377900	0.03369100	-0.62597700	0.44043000	0.26220700	-0.68408200	0.29663100	0.36669900	-0.67138700	-0.30737300	-0.28466800	-0.69702100	-0.18457000	-0.39917000
6285	62.84000000	-0.91088900	-0.14990200	0.11694300	-0.60595700	0.14184600	-0.69628900	-0.63012700	-0.59912100	-0.16723600	-0.84838900	-0.12793000	0.03393600	-0.62841800	0.44921900	0.26171900	-0.68652300	0.30102500	0.36669900	-0.66113300	-0.29492200	-0.31176800	-0.69921900	-0.18481400	-0.39697300
6286	62.85000000	-0.91967800	-0.14794900	0.12353500	-0.60595700	0.14184600	-0.70336900	-0.66040000	-0.57006800	-0.16162100	-0.84399400	-0.13427700	0.03857400	-0.62182600	0.44921900	0.26855500	-0.67797900	0.30542000	0.36865200	-0.65551800	-0.27417000	-0.35156200	-0.69677700	-0.18701200	-0.39257800
6287	62.86000000	-0.91723600	-0.15210000	0.11914100	-0.60595700	0.14404300	-0.70336900	-0.69091800	-0.53051800	-0.16088900	-0.84814500	-0.13623000	0.03418000	-0.62402300	0.45141600	0.26171900	-0.68261700	0.31201200	0.37329100	-0.64306600	-0.26367200	-0.37670900	-0.69897500	-0.18701200	-0.39038100
6288	62.87000000	-0.91113300	-0.14355500	0.12109400	-0.60376000	0.13989300	-0.70556600	-0.71093800	-0.50122100	-0.15747100	-0.84790000	-0.14257800	0.03442400	-0.61987300	0.45800800	0.26806600	-0.67407200	0.32275400	0.37304700	-0.63134800	-0.23877000	-0.40405300	-0.70336900	-0.18920900	-0.39257800
6289	62.88000000	-0.91772500	-0.14160200	0.12768600	-0.60180700	0.14624000	-0.71044900	-0.73266600	-0.47412100	-0.16064500	-0.83960000	-0.14038100	0.03662100	-0.61328100	0.46460000	0.26538100	-0.66748000	0.32519500	0.37304700	-0.62744100	-0.22021500	-0.43774400	-0.69433600	-0.19360400	-0.38354500
6290	62.89000000	-0.91552700	-0.14575200	0.12548800	-0.59741200	0.14184600	-0.70556600	-0.74414100	-0.44897500	-0.15918000	-0.84570300	-0.14672900	0.03222700	-0.61572300	0.46899400	0.26293900	-0.66772500	0.33374000	0.37060500	-0.61157200	-0.19531200	-0.46313500	-0.70312500	-0.19580100	-0.38793900
6291	62.90000000	-0.90918000	-0.13940400	0.12768600	-0.60376000	0.14184600	-0.70556600	-0.75708000	-0.43457000	-0.15966800	-0.84130900	-0.15063500	0.03002900	-0.61352500	0.47778300	0.26464800	-0.66772500	0.33374000	0.37744100	-0.60351600	-0.18090800	-0.48608400	-0.69653300	-0.19580100	-0.38354500
6292	62.91000000	-0.91992200	-0.13720700	0.12963900	-0.60351600	0.13549800	-0.71240200	-0.77050800	-0.41162100	-0.15600600	-0.84106400	-0.16113300	0.03051800	-0.60253900	0.48437500	0.26635700	-0.66601600	0.34252900	0.37744100	-0.59326200	-0.17456100	-0.50073200	-0.70117200	-0.19140600	-0.38793900
6293	62.92000000	-0.91577100	-0.13525400	0.12963900	-0.59936500	0.13549800	-0.70776400	-0.78149400	-0.39282200	-0.16552700	-0.83471700	-0.16308600	0.02832000	-0.60717800	0.48877000	0.26416000	-0.65918000	0.34033200	0.37963900	-0.57690400	-0.15991200	-0.51953100	-0.70092800	-0.19580100	-0.38793900
6294	62.93000000	-0.90722700	-0.13085900	0.13818400	-0.59936500	0.13354500	-0.70996100	-0.78637700	-0.37402300	-0.17065400	-0.83227500	-0.17334000	0.03100600	-0.59838900	0.49096700	0.26391600	-0.65283200	0.34912100	0.38623000	-0.56884800	-0.14941400	-0.53637700	-0.69653300	-0.19360400	-0.38574200
6295	62.94000000	-0.91577100	-0.13085900	0.13378900	-0.59692400	0.12939500	-0.70288100	-0.79370100	-0.34692400	-0.16040000	-0.83203100	-0.17968800	0.03344700	-0.59643600	0.49975600	0.26342800	-0.64648400	0.35571300	0.38623000	-0.55835000	-0.14721700	-0.55297900	-0.70092800	-0.19799800	-0.38134800
6296	62.95000000	-0.91601600	-0.12890600	0.13818400	-0.59912100	0.12719700	-0.71215800	-0.79394500	-0.34057600	-0.16064500	-0.82543900	-0.19213900	0.03857400	-0.58984400	0.50854500	0.26513700	-0.64892600	0.35791000	0.38623000	-0.54614300	-0.14306600	-0.55712900	-0.69873000	-0.19580100	-0.38134800
6297	62.96000000	-0.91626000	-0.12255900	0.13574200	-0.60131800	0.12915000	-0.70288100	-0.80859400	-0.34057600	-0.15405300	-0.82763700	-0.18994100	0.04077100	-0.58544900	0.51098600	0.26489300	-0.64013700	0.36450200	0.38818400	-0.55029300	-0.13696300	-0.56347700	-0.69848600	-0.20239300	-0.37670900
6298	62.97000000	-0.91626000	-0.11621100	0.13769500	-0.59668000	0.12085000	-0.71191400	-0.80249000	-0.33007800	-0.14990200	-0.82128900	-0.18994100	0.04541000	-0.57690400	0.51977500	0.25781200	-0.64477500	0.36889600	0.38598600	-0.54858400	-0.12866200	-0.57202100	-0.70532200	-0.20239300	-0.37670900
6299	62.98000000	-0.91650400	-0.11401400	0.13745100	-0.60522500	0.11669900	-0.70947300	-0.80444300	-0.33642600	-0.13842800	-0.82128900	-0.19409200	0.05249000	-0.56591800	0.52856400	0.26147500	-0.63818400	0.36889600	0.38598600	-0.55078100	-0.12255900	-0.56591800	-0.70507800	-0.20483400	-0.37451200
6300	62.99000000	-0.91870100	-0.11206100	0.13525400	-0.60083000	0.11254900	-0.70678700	-0.80444300	-0.33862300	-0.13623000	-0.82348600	-0.18798800	0.06127900	-0.56396500	0.53515600	0.25683600	-0.63867200	0.38427700	0.38134800	-0.57959000	-0.13330100	-0.53662100	-0.70532200	-0.20263700	-0.37011700
6301	63	-0.91870100	-0.10766600	0.14160200	-0.60498000	0.10620100	-0.70898400	-0.80004900	-0.34692400	-0.14038100	-0.82153300	-0.18383800	0.06591800	-0.55542000	0.54834000	0.26049800	-0.63427700	0.38208000	0.38574200	-0.59741200	-0.17260700	-0.51538100	-0.71191400	-0.20263700	-0.35888700
6302	63.01000000	-0.92089800	-0.10351600	0.13696300	-0.60034200	0.09790000	-0.71337900	-0.79126000	-0.35522500	-0.13110400	-0.82153300	-0.18603500	0.07959000	-0.55102500	0.55273400	0.25805700	-0.62817400	0.39941400	0.37890600	-0.62915000	-0.15673800	-0.48657200	-0.71191400	-0.20483400	-0.36108400
6303	63.02000000	-0.91894500	-0.09936500	0.13476600	-0.59814500	0.09570300	-0.71093800	-0.78857400	-0.37402300	-0.11499000	-0.81762700	-0.18188500	0.08862300	-0.53784200	0.56372100	0.25268600	-0.62377900	0.40185500	0.37670900	-0.63891600	-0.18579100	-0.45703100	-0.71191400	-0.20483400	-0.34741200
6304	63.03000000	-0.92358400	-0.09301800	0.13232400	-0.59350600	0.08520500	-0.71289100	-0.78173800	-0.39086900	-0.09863300	-0.81543000	-0.18188500	0.10473600	-0.53369100	0.57251000	0.25683600	-0.62402300	0.40600600	0.37426800	-0.66186500	-0.18408200	-0.43212900	-0.72070300	-0.20507800	-0.32739300
6305	63.04000000	-0.91918900	-0.09082000	0.13208000	-0.58935500	0.08960000	-0.71777300	-0.76855500	-0.41162100	-0.10009800	-0.80468800	-0.19213900	0.11206100	-0.51855500	0.58789100	0.24682600	-0.62646500	0.41259800	0.36743200	-0.67065400	-0.16381800	-0.42431600	-0.72949200	-0.20971700	-0.31372100
6306	63.05000000	-0.92358400	-0.09082000	0.14086900	-0.59375000	0.09155300	-0.72021500	-0.76416000	-0.41577100	-0.10009800	-0.80468800	-0.19628900	0.12353500	-0.50537100	0.59912100	0.24389600	-0.62866200	0.41479500	0.36523400	-0.66918900	-0.22094700	-0.40869100	-0.73168900	-0.21411100	-0.30249000
6307	63.06000000	-0.92163100	-0.08227500	0.13623000	-0.59375000	0.09375000	-0.71557600	-0.75512700	-0.43457000	-0.10156200	-0.80908200	-0.18603500	0.13012700	-0.49682600	0.60791000	0.24121100	-0.62670900	0.41699200	0.35180700	-0.67089800	-0.23339800	-0.40429700	-0.74047900	-0.21655300	-0.28002900
6308	63.07000000	-0.92602500	-0.08252000	0.14282200	-0.59570300	0.08740200	-0.71997100	-0.74633800	-0.45141600	-0.07641600	-0.80932600	-0.18383800	0.12988300	-0.48828100	0.62109400	0.24926800	-0.63525400	0.41259800	0.35400400	-0.67358400	-0.20898400	-0.40478500	-0.74707000	-0.21679700	-0.26001000
6309	63.08000000	-0.93017600	-0.08032200	0.13818400	-0.59985400	0.08520500	-0.71289100	-0.73950200	-0.46606400	-0.05590800	-0.80957000	-0.17553700	0.12963900	-0.47070300	0.63427700	0.23291000	-0.64404300	0.41015600	0.34277300	-0.66723600	-0.21508800	-0.39428700	-0.75366200	-0.22143600	-0.22851600
6310	63.09000000	-0.92382800	-0.08252000	0.14282200	-0.59960900	0.07690400	-0.71728500	-0.73291000	-0.47656200	-0.04199200	-0.80957000	-0.16943400	0.13623000	-0.45776400	0.65185500	0.22729500	-0.63964800	0.40820300	0.33837900	-0.66308600	-0.22094700	-0.39843800	-0.76049800	-0.21728500	-0.19702100
6311	63.10000000	-0.92382800	-0.08032200	0.14502000	-0.59741200	0.07690400	-0.71264600	-0.73046900	-0.48486300	-0.03271500	-0.81176800	-0.16723600	0.12695300	-0.44458000	0.66064500	0.23120100	-0.65722700	0.40795900	0.32714800	-0.66723600	-0.22119100	-0.39209000	-0.77172900	-0.21752900	-0.16552700
6312	63.11000000	-0.93042000	-0.07617200	0.14038100	-0.59716800	0.06835900	-0.71923800	-0.72143600	-0.50585900	-0.01879900	-0.80737300	-0.17773400	0.13671900	-0.42480500	0.67407200	0.22583000	-0.65942400	0.40991200	0.31591800	-0.67138700	-0.21923800	-0.39013700	-0.77148400	-0.22216800	-0.12060500
6313	63.12000000	-0.93017600	-0.08032200	0.13818400	-0.59912100	0.06225600	-0.72143600	-0.70654300	-0.51416000	-0.01391600	-0.80493200	-0.19213900	0.14184600	-0.40258800	0.67627000	0.22973600	-0.67016600	0.40112300	0.30712900	-0.66479500	-0.22729500	-0.39209000	-0.77832000	-0.21801800	-0.08691400
6314	63.13000000	-0.92407200	-0.07617200	0.14038100	-0.59668000	0.05371100	-0.72094700	-0.71069300	-0.51831100	-0.00927700	-0.79394500	-0.20874000	0.15625000	-0.39184600	0.68945300	0.22680700	-0.67651400	0.39672900	0.29589800	-0.66918900	-0.22314500	-0.39209000	-0.77612300	-0.22265600	-0.05322300
6315	63.14000000	-0.92187500	-0.07397500	0.14697300	-0.59668000	0.04760700	-0.72534200	-0.71289100	-0.51001000	-0.01635700	-0.78491200	-0.23339800	0.16162100	-0.37426800	0.70263700	0.23046900	-0.68725600	0.38574200	0.28930700	-0.66088900	-0.22314500	-0.38793900	-0.77856400	-0.21630900	-0.00830100
6316	63.15000000	-0.92407200	-0.06982400	0.13574200	-0.58984400	0.04126000	-0.73217800	-0.71289100	-0.51001000	-0.01635700	-0.78198200	-0.25415000	0.15112300	-0.35839800	0.69824200	0.23706100	-0.69360400	0.37475600	0.28051800	-0.66284200	-0.22509800	-0.38378900	-0.78100600	-0.20996100	0.01635700
6317	63.16000000	-0.92627000	-0.07177700	0.14453100	-0.58325200	0.03515600	-0.73437500	-0.70678700	-0.51001000	-0.02294900	-0.77514600	-0.27490200	0.14721700	-0.34301800	0.70922900	0.24755900	-0.70434600	0.36816400	0.28051800	-0.66308600	-0.22119100	-0.38378900	-0.77905300	-0.20336900	0.04126000
6318	63.17000000	-0.92211900	-0.06958000	0.14013700	-0.58300800	0.02880900	-0.74096700	-0.70825200	-0.52661100	-0.02465800	-0.76831100	-0.29345700	0.14575200	-0.32739300	0.70703100	0.26318400	-0.71508800	0.35937500	0.27612300	-0.65893600	-0.22094700	-0.38378900	-0.78149400	-0.19262700	0.06127900
